<?xml version="1.0" encoding="utf-8"?>
<svg version="1.1" xmlns="http://www.w3.org/2000/svg" xmlns:xlink="http://www.w3.org/1999/xlink" x="0px" y="0px"
	 viewBox="0 0 138 44.8" style="enable-background:new 0 0 138 44.8;" xml:space="preserve">
<style type="text/css">
	.st0{display:none;fill:#4F347B;}
	.st1{fill:#FFFFFF;}
	.st2{fill:#F78E26;}
	.st3{fill:#F15A31;}
	.st4{fill:#7DC242;}
	.st5{fill:#00AB4E;}
	.st6{fill:#009DD2;}
	.st7{fill:#006AA3;}
	.st8{fill:#00619B;}
	.st9{fill:#BE1A65;}
	.st10{fill:#92124F;}
	.st11{fill:#EE2B61;}
</style>
<rect x="-57.6" y="-46.7" class="st0" width="255.1" height="164.4"/>
<g>
	<g>
		<path class="st1" d="M33.1,21.3h1.5v-2.6h3.3v2.6h2.9v2.5h-2.9v3.9c0,0.4,0.1,0.7,0.3,0.9c0.2,0.2,0.5,0.3,0.9,0.3
			c0.2,0,0.5,0,0.7-0.1c0.3,0,0.5-0.1,0.7-0.2l0.2,2.3c-0.3,0.2-0.7,0.3-1.2,0.3c-0.5,0.1-0.9,0.1-1.4,0.1c-0.6,0-1.2-0.1-1.6-0.3
			c-0.4-0.2-0.8-0.5-1.1-0.8c-0.3-0.3-0.5-0.7-0.6-1.2c-0.1-0.5-0.2-0.9-0.2-1.5v-4h-1.5V21.3z"/>
		<path class="st1" d="M48.3,24.1h-0.4c-1.3,0-2.2,0.3-2.7,1v6.2h-3.3v-10h3.2V23c0.2-0.5,0.5-1,0.9-1.3c0.4-0.3,0.9-0.5,1.5-0.5
			c0.2,0,0.3,0,0.5,0c0.1,0,0.3,0.1,0.4,0.1L48.3,24.1z"/>
		<path class="st1" d="M54.5,30.3c-0.3,0.3-0.7,0.6-1.3,0.8c-0.5,0.2-1.1,0.4-1.8,0.4c-0.4,0-0.8-0.1-1.2-0.2
			c-0.4-0.1-0.6-0.4-0.9-0.6c-0.2-0.3-0.4-0.6-0.5-0.9c-0.1-0.3-0.2-0.7-0.2-1.1c0-0.9,0.3-1.6,0.9-2.1c0.6-0.5,1.4-0.7,2.5-0.8
			c0.4,0,0.8,0,1.3-0.1c0.4,0,0.8,0,1.2,0v-0.3c0-1.1-0.6-1.6-1.8-1.6c-0.5,0-0.9,0.1-1.4,0.2c-0.4,0.1-0.8,0.3-1.2,0.4L49.4,22
			c0.5-0.3,1-0.5,1.7-0.7c0.6-0.2,1.3-0.3,2.1-0.3c1.4,0,2.5,0.4,3.3,1.1c0.8,0.7,1.2,1.8,1.2,3.3v5.8h-3.1V30.3z M52.8,29.3
			c0.3,0,0.6,0,0.9-0.1c0.3-0.1,0.5-0.2,0.8-0.3v-1.5c-0.3,0-0.6,0.1-0.9,0.1c-0.3,0-0.5,0.1-0.8,0.1c-0.7,0.1-1,0.4-1,0.9
			c0,0.2,0.1,0.4,0.3,0.6C52.2,29.3,52.5,29.3,52.8,29.3z"/>
		<path class="st1" d="M59.6,31.3v-10h3.1v1.3c0.3-0.5,0.7-0.9,1.2-1.2c0.5-0.2,1-0.3,1.6-0.3c0.7,0,1.2,0.1,1.7,0.4
			c0.5,0.3,0.8,0.6,1.1,1.1c0.3,0.5,0.5,1,0.6,1.6c0.1,0.6,0.2,1.2,0.2,1.9v5.2h-3.3v-5.2c0-0.8-0.1-1.4-0.4-1.8
			c-0.3-0.4-0.7-0.6-1.2-0.6c-0.3,0-0.6,0.1-0.9,0.2c-0.3,0.1-0.5,0.3-0.6,0.5v6.8H59.6z"/>
		<path class="st1" d="M78.1,28c0,0.6-0.1,1.1-0.3,1.5c-0.2,0.4-0.5,0.8-0.9,1.1c-0.4,0.3-0.8,0.5-1.4,0.7c-0.5,0.1-1.1,0.2-1.8,0.2
			c-0.5,0-1.1-0.1-1.7-0.2c-0.6-0.1-1.1-0.3-1.6-0.5l0.4-2.3c0.4,0.2,0.9,0.3,1.4,0.4c0.5,0.1,1,0.1,1.3,0.1c0.4,0,0.7-0.1,1-0.2
			c0.3-0.1,0.4-0.3,0.4-0.6c0-0.2-0.1-0.4-0.4-0.5c-0.3-0.1-0.6-0.2-1.2-0.4c-0.4-0.1-0.8-0.3-1.2-0.5c-0.4-0.2-0.7-0.4-0.9-0.7
			c-0.3-0.3-0.5-0.5-0.6-0.9c-0.1-0.3-0.2-0.7-0.2-1.1c0-1.1,0.4-1.9,1.1-2.4c0.7-0.5,1.7-0.8,2.9-0.8c0.6,0,1.2,0.1,1.7,0.2
			c0.5,0.1,1,0.3,1.5,0.6L77.3,24c-0.4-0.2-0.8-0.3-1.2-0.4c-0.4-0.1-0.8-0.2-1.3-0.2c-0.4,0-0.7,0-0.9,0.1
			c-0.2,0.1-0.3,0.2-0.3,0.5c0,0.2,0.1,0.4,0.4,0.5c0.3,0.1,0.6,0.2,1,0.4c0.3,0.1,0.6,0.2,1,0.4s0.7,0.4,1,0.6
			c0.3,0.2,0.6,0.5,0.8,0.9C78,27.1,78.1,27.5,78.1,28z"/>
		<path class="st1" d="M90.4,23.7c-0.4,0-0.7,0.1-0.9,0.2c-0.3,0.2-0.5,0.4-0.7,0.6c0.1,0.2,0.1,0.5,0.1,0.8c0,0.3,0,0.6,0,0.9v5.2
			h-3.3v-5.2c0-0.8-0.1-1.4-0.3-1.8c-0.2-0.4-0.6-0.6-1.1-0.6c-0.3,0-0.6,0.1-0.9,0.2c-0.3,0.1-0.5,0.3-0.6,0.5v6.8h-3.3v-10h3.1
			v1.3c0.3-0.5,0.7-0.9,1.2-1.2c0.5-0.2,1-0.3,1.6-0.3c0.7,0,1.2,0.1,1.6,0.4c0.4,0.3,0.8,0.7,1.2,1.3c0.7-1.1,1.8-1.7,3.3-1.7
			c0.7,0,1.2,0.1,1.6,0.4c0.4,0.3,0.8,0.6,1.1,1.1c0.3,0.5,0.5,1,0.6,1.6c0.1,0.6,0.2,1.2,0.2,1.9v5.2h-3.3v-5.2
			c0-0.8-0.1-1.4-0.3-1.8C91.3,23.9,90.9,23.7,90.4,23.7z"/>
		<path class="st1" d="M102.4,30.3c-0.3,0.3-0.7,0.6-1.3,0.8s-1.1,0.4-1.8,0.4c-0.4,0-0.8-0.1-1.2-0.2c-0.4-0.1-0.6-0.4-0.9-0.6
			c-0.2-0.3-0.4-0.6-0.5-0.9c-0.1-0.3-0.2-0.7-0.2-1.1c0-0.9,0.3-1.6,0.9-2.1c0.6-0.5,1.4-0.7,2.5-0.8c0.4,0,0.8,0,1.3-0.1
			c0.4,0,0.8,0,1.2,0v-0.3c0-1.1-0.6-1.6-1.8-1.6c-0.5,0-0.9,0.1-1.4,0.2c-0.4,0.1-0.8,0.3-1.2,0.4L97.3,22c0.5-0.3,1-0.5,1.7-0.7
			c0.6-0.2,1.3-0.3,2.1-0.3c1.4,0,2.5,0.4,3.3,1.1c0.8,0.7,1.2,1.8,1.2,3.3v5.8h-3.1V30.3z M100.6,29.3c0.3,0,0.6,0,0.9-0.1
			c0.3-0.1,0.5-0.2,0.8-0.3v-1.5c-0.3,0-0.6,0.1-0.9,0.1c-0.3,0-0.5,0.1-0.8,0.1c-0.7,0.1-1,0.4-1,0.9c0,0.2,0.1,0.4,0.3,0.6
			C100.1,29.3,100.3,29.3,100.6,29.3z"/>
		<path class="st1" d="M106.4,21.3h1.5v-2.6h3.3v2.6h2.9v2.5h-2.9v3.9c0,0.4,0.1,0.7,0.3,0.9c0.2,0.2,0.5,0.3,0.9,0.3
			c0.2,0,0.5,0,0.7-0.1c0.3,0,0.5-0.1,0.7-0.2L114,31c-0.3,0.2-0.7,0.3-1.2,0.3c-0.5,0.1-0.9,0.1-1.4,0.1c-0.6,0-1.2-0.1-1.6-0.3
			c-0.4-0.2-0.8-0.5-1.1-0.8c-0.3-0.3-0.5-0.7-0.6-1.2c-0.1-0.5-0.2-0.9-0.2-1.5v-4h-1.5V21.3z"/>
		<path class="st1" d="M119.7,21.1c1.3,0,2.3,0.4,3.1,1.1c0.8,0.8,1.1,1.8,1.1,3.2c0,0.5-0.1,1.1-0.2,1.6h-5.8
			c0,0.6,0.2,1.1,0.6,1.5c0.4,0.4,1,0.6,1.8,0.6c0.5,0,1,0,1.5-0.1c0.5-0.1,1-0.2,1.4-0.4l0.4,2.1c-0.5,0.3-1.1,0.5-1.7,0.6
			c-0.6,0.1-1.3,0.2-2,0.2c-0.9,0-1.6-0.1-2.3-0.4c-0.7-0.3-1.2-0.6-1.7-1c-0.4-0.4-0.8-1-1-1.6s-0.3-1.3-0.3-2.1
			c0-0.8,0.1-1.5,0.4-2.2c0.2-0.7,0.6-1.2,1-1.7c0.4-0.5,1-0.8,1.6-1C118.2,21.2,118.9,21.1,119.7,21.1z M119.6,23.2
			c-0.5,0-0.9,0.2-1.2,0.5c-0.3,0.3-0.4,0.8-0.4,1.4h2.9c0-0.1,0-0.2,0-0.3c0-0.4-0.1-0.8-0.3-1.1S120,23.2,119.6,23.2z"/>
	</g>
	<polygon class="st2" points="27.1,10.3 27.1,2.3 33.1,6.4 	"/>
	<polygon class="st3" points="27.1,10.3 27.1,2.3 21.1,6.4 	"/>
	<polygon class="st4" points="21.1,14.3 21.1,6.3 27.1,10.3 	"/>
	<polygon class="st5" points="21.1,14.3 21.1,6.3 15.1,10.3 	"/>
	<polygon class="st6" points="15.1,18.3 15.1,10.3 21.1,14.3 	"/>
	<polygon class="st6" points="9.1,22.4 9.1,14.4 15.1,18.4 	"/>
	<polygon class="st7" points="15.1,18.3 15.1,10.3 9.1,14.3 	"/>
	<polygon class="st8" points="15.1,26.3 15.1,18.3 9.1,22.3 	"/>
	<polygon class="st9" points="15.1,34.2 15.1,26.3 21.1,30.3 	"/>
	<polygon class="st10" points="21.1,38.2 21.1,30.3 15.1,34.3 	"/>
	<polygon class="st11" points="21.1,30.3 21.1,22.3 15.1,26.3 	"/>
	<g>
		<path class="st1" d="M124.4,18.4c0-0.4,0.1-0.8,0.2-1.2s0.4-0.7,0.7-1c0.3-0.3,0.6-0.5,1-0.7c0.4-0.2,0.9-0.3,1.4-0.3
			c0.5,0,1,0.1,1.4,0.3c0.4,0.2,0.7,0.4,1,0.7c0.3,0.3,0.5,0.6,0.6,1c0.2,0.4,0.2,0.8,0.2,1.2c0,0.4-0.1,0.8-0.2,1.2
			c-0.2,0.4-0.4,0.7-0.6,1c-0.3,0.3-0.6,0.5-1,0.7c-0.4,0.2-0.9,0.3-1.4,0.3c-0.5,0-1-0.1-1.4-0.3c-0.4-0.2-0.7-0.4-1-0.7
			c-0.3-0.3-0.5-0.6-0.7-1C124.5,19.2,124.4,18.8,124.4,18.4z M125,18.4c0,0.4,0.1,0.7,0.2,1c0.1,0.3,0.3,0.6,0.5,0.8
			c0.2,0.2,0.5,0.4,0.8,0.6c0.3,0.1,0.7,0.2,1.1,0.2c0.4,0,0.7-0.1,1.1-0.2c0.3-0.1,0.6-0.3,0.8-0.6c0.2-0.2,0.4-0.5,0.5-0.8
			c0.1-0.3,0.2-0.7,0.2-1s-0.1-0.7-0.2-1c-0.1-0.3-0.3-0.6-0.5-0.8c-0.2-0.2-0.5-0.4-0.8-0.6c-0.3-0.1-0.7-0.2-1.1-0.2
			c-0.4,0-0.7,0.1-1.1,0.2c-0.3,0.1-0.6,0.3-0.8,0.6c-0.2,0.2-0.4,0.5-0.5,0.8C125.1,17.6,125,18,125,18.4z M129,17.7
			c0,0.2-0.1,0.4-0.2,0.5c-0.1,0.1-0.3,0.3-0.5,0.3l0.9,1.2h-1l-0.8-1.1h-0.1v1.1h-0.9v-3h1.3c0.3,0,0.6,0.1,0.8,0.2
			S129,17.4,129,17.7z M128.1,17.8c0-0.2-0.1-0.3-0.4-0.3h-0.3v0.7h0.2c0.2,0,0.3,0,0.4-0.1C128.1,18,128.1,17.9,128.1,17.8z"/>
	</g>
</g>
</svg>
