<?xml version="1.0" encoding="UTF-8" standalone="no"?>
<svg version="1.1" id="Laag_1" xmlns="http://www.w3.org/2000/svg" xmlns:xlink="http://www.w3.org/1999/xlink" x="0px" y="0px"
	 viewBox="0 0 1417.3 1417.3" style="enable-background:new 0 0 1417.3 1417.3;" xml:space="preserve">
	<style type="text/css">
		.st1{fill:#97134A;}
		.st2{fill:#E61E58;}
		.st3{fill:#00629F;}
		.st4{fill:#C1115E;}
		.st5{fill:#0095CF;}
		.st6{fill:#009D3D;}
		.st7{fill:#83BB26;}
		.st8{fill:#E94E25;}
		.st9{fill:#F28B10;}
	</style>
	<polygon class="st1" points="708.8,1188.2 708.8,974.5 548.3,1081.4 "/>
	<polygon class="st2" points="708.8,974.7 708.8,761 548.3,867.9 "/>
	<polygon class="st3" points="548.3,867.8 548.3,654.1 387.8,761 "/>
	<polygon class="st3" points="548.3,654.1 548.3,440.4 387.8,547.3 "/>
	<polygon class="st4" points="548.3,1081.5 548.3,867.8 708.8,974.8 "/>
	<polygon class="st5" points="548.3,654.1 548.3,440.4 708.8,547.3 "/>
	<polygon class="st5" points="387.8,761 387.8,547.3 548.3,654.2 "/>
	<polygon class="st6" points="708.8,547.3 708.8,333.5 548.3,440.5 "/>
	<polygon class="st7" points="708.8,547.3 708.8,333.5 869.3,440.5 "/>
	<polygon class="st8" points="869.3,440.4 869.3,226.7 708.8,333.6 "/>
	<polygon class="st9" points="869.3,440.4 869.3,226.7 1029.8,333.6 "/>
</svg>
