<?xml version="1.0" encoding="UTF-8"?>
<svg width="24px" height="31px" viewBox="0 0 24 31" version="1.1" xmlns="http://www.w3.org/2000/svg" xmlns:xlink="http://www.w3.org/1999/xlink">
    <!-- Generator: Sketch 42 (36781) - http://www.bohemiancoding.com/sketch -->
    <title>marker-red</title>
    <desc>Created with Sketch.</desc>
    <defs></defs>
    <g id="Page-1" stroke="none" stroke-width="1" fill="none" fill-rule="evenodd">
        <path d="M12.2171875,0.875 C13.9750088,0.875 15.5472587,1.17773135 16.9339844,1.78320312 C18.3207101,2.3886749 19.4876906,3.21386196 20.4349609,4.25878906 C21.3822313,5.30371616 22.1048803,6.51952432 22.6029297,7.90625 C23.1009791,9.29297568 23.35,10.7578048 23.35,12.3007812 C23.35,13.8632891 23.0423859,15.4599528 22.4271484,17.0908203 C21.811911,18.7216878 21.0355516,20.3232343 20.0980469,21.8955078 C19.1605422,23.4677813 18.1449273,24.9570242 17.0511719,26.3632812 C15.9574164,27.7695383 14.932036,29.0195258 13.975,30.1132812 C13.975,30.1328126 13.8285171,30.2646472 13.5355469,30.5087891 C13.2425767,30.7529309 12.9007832,30.875 12.5101563,30.875 L12.4222656,30.875 C12.0121073,30.875 11.6654311,30.7529309 11.3822266,30.5087891 C11.099022,30.2646472 10.9574219,30.1328126 10.9574219,30.1132812 C9.9417918,28.9414004 8.84316997,27.6621163 7.66152344,26.2753906 C6.4798769,24.8886649 5.38613784,23.4287186 4.38027344,21.8955078 C3.37440903,20.362297 2.53457368,18.7851644 1.86074219,17.1640625 C1.18691069,15.5429606 0.85,13.9218831 0.85,12.3007812 C0.85,10.7578048 1.15273135,9.29297568 1.75820313,7.90625 C2.3636749,6.51952432 3.1839792,5.30371616 4.21914063,4.25878906 C5.25430205,3.21386196 6.46034468,2.3886749 7.83730469,1.78320312 C9.2142647,1.17773135 10.674211,0.875 12.2171875,0.875 Z M12.1292969,15.9042969 C13.1644583,15.9042969 14.0433558,15.5332068 14.7660156,14.7910156 C15.4886755,14.0488244 15.85,13.1601614 15.85,12.125 C15.85,11.0898386 15.4837927,10.2060583 14.7513672,9.47363281 C14.0189417,8.74120728 13.1351614,8.375 12.1,8.375 C11.0648386,8.375 10.1810583,8.74120728 9.44863281,9.47363281 C8.71620728,10.2060583 8.35,11.0898386 8.35,12.125 C8.35,13.1601614 8.72109004,14.0488244 9.46328125,14.7910156 C10.2054725,15.5332068 11.0941354,15.9042969 12.1292969,15.9042969 Z" id="marker-blue" fill="#3fa2f7"></path>
    </g>
</svg>