<?xml version="1.0" encoding="utf-8"?>
<svg width="654px" height="654px" viewBox="0 0 654 654" version="1.1" xmlns:xlink="http://www.w3.org/1999/xlink" xmlns="http://www.w3.org/2000/svg">
  <desc>Created with Lunacy</desc>
  <g id="body-instance">
    <g id="Group-2" transform="translate(5 5)">
      <path d="M0 322C0 144.164 144.164 0 322 0C499.836 0 644 144.164 644 322C644 499.836 499.836 644 322 644C144.164 644 0 499.836 0 322Z" id="Oval" fill="#0071B3" stroke="none" />
      <path d="M0 310C0 138.792 138.792 0 310 0C481.208 0 620 138.792 620 310C620 481.208 481.208 620 310 620C138.792 620 0 481.208 0 310Z" transform="translate(12 12)" id="Oval-2" fill="none" stroke="#FFFFFF" stroke-width="10" />
    </g>
    <path d="M362.68 3.51378C361.8 2.57385 360.568 2.04008 359.282 2.04008L251.715 2.04008C250.711 2.04008 249.733 2.36519 248.928 2.96603L242.272 7.93675C231.852 5.13839 209.029 0 181.969 0C154.909 0 132.086 5.13839 121.666 7.93675L115.011 2.96603C114.206 2.36426 113.228 2.04008 112.223 2.04008L4.65807 2.04008C3.36975 2.04008 2.14011 2.57385 1.25981 3.51378C0.379498 4.45371 -0.0732317 5.71595 0.00967633 7.00148L10.3889 165.936C10.4541 166.94 10.8426 167.895 11.4965 168.66L42.2123 204.584L51.7606 431.579C51.865 434.073 53.9171 436.041 56.4137 436.041L307.527 436.041C310.023 436.041 312.076 434.073 312.18 431.579L321.728 204.583L352.443 168.66C353.098 167.895 353.487 166.94 353.552 165.936L363.929 7.00148C364.013 5.71595 363.561 4.45371 362.68 3.51378ZM209.974 37.9837L184.9 56.7105C184.072 57.3281 183.094 57.6364 182.112 57.6364C181.13 57.6364 180.152 57.3281 179.325 56.7105L154.266 37.9939C152.746 36.8583 152.067 34.9142 152.549 33.0791C153.031 31.2439 154.578 29.8848 156.458 29.6426C165.202 28.5173 173.832 27.9472 182.112 27.9472C190.423 27.9472 199.058 28.5145 207.777 29.6324C209.66 29.8736 211.208 31.2328 211.69 33.0679C212.172 34.904 211.493 36.849 209.974 37.9837ZM74.2808 268C73.4024 268.915 72.9357 270.151 72.9897 271.419L73.9688 294.707C74.0731 297.201 76.1253 299.168 78.6218 299.168L136.38 299.168C137.699 299.168 138.957 298.609 139.841 297.629C140.724 296.648 141.151 295.341 141.014 294.029L138.588 270.74C138.341 268.368 136.341 266.565 133.955 266.565L77.6428 266.565C76.374 266.565 75.1593 267.085 74.2808 268ZM285.329 299.169C287.826 299.169 289.877 297.202 289.981 294.708L290.96 271.42C291.013 270.152 290.546 268.916 289.669 268.001C288.791 267.085 287.575 266.566 286.308 266.566L229.995 266.566C227.609 266.566 225.61 268.368 225.362 270.741L222.936 294.03C222.799 295.341 223.226 296.651 224.109 297.63C224.992 298.609 226.25 299.169 227.569 299.169L285.329 299.169ZM75.34 327.312C75.286 326.044 75.7517 324.808 76.6311 323.893C77.5105 322.977 78.7243 322.457 79.993 322.457L139.778 322.457C142.163 322.457 144.163 324.261 144.41 326.633L146.836 349.921C146.973 351.234 146.546 352.542 145.663 353.522C144.78 354.502 143.522 355.061 142.203 355.061L80.973 355.061C78.4765 355.061 76.4243 353.094 76.32 350.599L75.34 327.312ZM287.63 350.6C287.525 353.095 285.473 355.062 282.977 355.062L221.745 355.062C220.426 355.062 219.169 354.502 218.287 353.522C217.404 352.543 216.977 351.234 217.114 349.922L219.54 326.634C219.787 324.261 221.786 322.458 224.173 322.458L283.958 322.458C285.226 322.458 286.441 322.977 287.32 323.894C288.196 324.809 288.663 326.045 288.611 327.313L287.63 350.6ZM147.726 408.095C149.046 408.095 150.303 407.536 151.186 406.555C152.07 405.575 152.497 404.267 152.358 402.954L150.23 382.524C149.984 380.152 147.984 378.35 145.598 378.35L82.3424 378.35C81.0736 378.35 79.8589 378.869 78.9805 379.785C78.102 380.7 77.6353 381.935 77.6893 383.204L78.5491 403.633C78.6526 406.128 80.7047 408.095 83.2022 408.095L147.726 408.095ZM280.745 408.095C283.244 408.095 285.295 406.127 285.399 403.633L286.255 383.206C286.309 381.938 285.843 380.703 284.964 379.787C284.086 378.871 282.87 378.353 281.603 378.353L218.348 378.353C215.962 378.353 213.963 380.154 213.715 382.527L211.589 402.957C211.453 404.267 211.879 405.576 212.762 406.556C213.645 407.535 214.903 408.095 216.221 408.095L280.745 408.095Z" transform="translate(150.061 129.9586)" id="Shape" fill="#FFFFFF" fill-rule="evenodd" stroke="none" />
    <g id="Group" transform="translate(108 130.9586)" />
    <g id="Group" transform="translate(108 130.9586)" />
    <g id="Group" transform="translate(108 130.9586)" />
    <g id="Group" transform="translate(108 130.9586)" />
    <g id="Group" transform="translate(108 130.9586)" />
    <g id="Group" transform="translate(108 130.9586)" />
    <g id="Group" transform="translate(108 130.9586)" />
    <g id="Group" transform="translate(108 130.9586)" />
    <g id="Group" transform="translate(108 130.9586)" />
    <g id="Group" transform="translate(108 130.9586)" />
    <g id="Group" transform="translate(108 130.9586)" />
    <g id="Group" transform="translate(108 130.9586)" />
    <g id="Group" transform="translate(108 130.9586)" />
    <g id="Group" transform="translate(108 130.9586)" />
    <g id="Group" transform="translate(108 130.9586)" />
  </g>
</svg>