<?xml version="1.0" encoding="utf-8"?>
<svg width="654px" height="654px" viewBox="0 0 654 654" version="1.1" xmlns:xlink="http://www.w3.org/1999/xlink" xmlns="http://www.w3.org/2000/svg">
  <desc>Created with Lunacy</desc>
  <g id="ears-instance">
    <g id="Group-8" transform="translate(5 5)">
      <path d="M0 322C0 144.164 144.164 0 322 0C499.836 0 644 144.164 644 322C644 499.836 499.836 644 322 644C144.164 644 0 499.836 0 322Z" id="Oval" fill="#0071B3" stroke="none" />
      <path d="M0 310C0 138.792 138.792 0 310 0C481.208 0 620 138.792 620 310C620 481.208 481.208 620 310 620C138.792 620 0 481.208 0 310Z" transform="translate(12 12)" id="Oval-2" fill="none" stroke="#FFFFFF" stroke-width="10" />
    </g>
    <g id="silhouette-with-safety-headphone" transform="translate(121.0002 112)">
      <g id="Group" transform="translate(3.18042 0)">
        <g id="Group">
          <path d="M253.211 85.2602C225.902 81.1142 205.436 70.193 192.385 52.7983C184.195 41.8847 179.214 28.7921 177.579 13.8856C177.414 12.3819 176.539 11.0484 175.229 10.2975C173.916 9.54664 172.323 9.46909 170.943 10.0876C156.227 16.6916 134.552 24.5647 114.857 24.5647C106.985 24.5647 99.9982 23.2899 94.0903 20.7762C85.5561 17.1455 79.0504 11.0248 74.7521 2.58424C73.7487 0.613357 71.513 -0.39951 69.371 0.147113C48.2199 5.53584 31.0163 18.6681 18.2377 39.1799C7.82431 55.8937 2.62567 73.9617 0.09776 86.1747C-0.00627009 86.6778 -0.027079 87.1952 0.0343953 87.7049L4.49726 167.247C4.51996 167.656 4.59561 168.061 4.72234 168.45C4.97864 169.238 5.43352 170.994 5.44582 171.037C10.6965 190.561 28.0136 240.979 45.2702 263.627C52.453 273.056 68.4026 284.298 89.0288 294.472C108.594 304.123 123.615 308.86 127.989 309.024C128.047 309.026 128.106 309.027 128.165 309.027C128.223 309.027 128.282 309.026 128.341 309.024C132.715 308.86 148.87 304.123 168.434 294.472C189.062 284.298 205.009 273.055 212.193 263.628C229.449 240.981 246.766 190.562 252.015 171.04C252.028 170.997 252.483 169.24 252.742 168.447C252.869 168.057 252.944 167.653 252.965 167.245L257.225 90.1959C257.358 87.7626 255.621 85.6262 253.211 85.2602L253.211 85.2602Z" transform="translate(76.74634 107.2317)" id="Shape" fill="#FFFFFF" stroke="none" />
          <path d="M63.2574 11.7478C56.9683 4.7078 48.3131 0.538116 38.8871 0.00662363C38.8048 0.00189041 14.6567 0 14.6567 0C14.6492 0 14.6435 0 14.6369 0C12.1581 0 10.0993 1.82146 9.92056 4.29546L0.0122371 142.111C-0.140958 144.242 1.15563 146.213 3.17568 146.915C6.04878 147.915 8.58143 148.511 13.7271 148.801L30.5335 149.748C31.2088 149.785 31.8821 149.804 32.5489 149.804C32.5498 149.804 32.5508 149.804 32.5517 149.804C51.2685 149.804 66.7547 135.153 67.8082 116.445L72.1841 37.2832C72.7184 27.8572 69.5474 18.7887 63.2574 11.7478L63.2574 11.7478Z" transform="translate(337.5774 126.809)" id="Shape" fill="#FFFFFF" stroke="none" />
          <path d="M62.3228 4.31249C62.145 1.83753 60.0853 0.0170281 57.6065 0.0170281C57.5999 0.0170281 57.5942 0.0170281 57.5876 0.0170281L33.3563 0C23.9312 0.531492 15.276 4.70024 8.98695 11.7411C2.69695 18.7811 -0.474055 27.8496 0.0574398 37.2709L4.4333 116.443C5.48778 135.147 20.9749 149.799 39.6926 149.799L39.6945 149.799C40.3622 149.799 41.0327 149.78 41.708 149.742L58.5154 148.795C63.661 148.505 66.1937 147.908 69.0668 146.909C71.0859 146.208 72.3834 144.237 72.2302 142.105L62.3228 4.31249L62.3228 4.31249Z" transform="translate(0 126.8166)" id="Shape" fill="#FFFFFF" stroke="none" />
          <path d="M0.921522 106.927C1.08135 109.412 3.14208 111.347 5.63216 111.352C5.635 111.352 5.63784 111.352 5.64067 111.352C8.12698 111.352 10.1905 109.426 10.3579 106.943C11.0682 96.4759 14.4898 80.8583 26.7549 65.9007C50.2608 37.2321 95.5004 22.6964 161.217 22.6964C226.933 22.6964 272.173 37.2321 295.679 65.9007C307.945 80.8592 311.365 96.4769 312.076 106.944C312.245 109.427 314.306 111.353 316.793 111.353C316.796 111.353 316.798 111.353 316.801 111.353C319.292 111.349 321.352 109.413 321.512 106.928L322.079 98.1167C322.079 98.1167 323.506 68.3265 306.22 44.813C283.654 14.1158 231.747 0 161.217 0C90.3916 0 38.8072 14.567 15.9216 45.1667C-3.30018 70.8677 0.231145 96.6093 0.292616 97.8094L0.921522 106.927L0.921522 106.927Z" transform="translate(43.94873 0)" id="Shape" fill="#FFFFFF" stroke="none" />
          <path d="M0.280364 82.0405L2.28908 113.22C2.42526 115.335 3.95166 117.101 6.02468 117.541C8.09487 117.979 10.2095 116.99 11.1949 115.113C28.7579 81.6442 56.3371 61.7141 90.9534 57.4753C90.9534 57.4753 96.2456 56.7594 98.0302 58.4844C99.5188 59.9229 100.569 64.1502 100.569 64.1502C102.666 72.8982 106.972 78.5489 113.732 81.4239C117.648 83.0902 122.377 83.9347 127.788 83.9347C151.53 83.9347 185.441 66.5685 194.949 61.4918C203.421 56.9675 210.317 58.5639 208.024 70.7608C207.542 73.3285 203.428 98.2719 219.376 119.295C228.77 131.677 243.621 139.924 263.52 143.807C264.953 143.994 266.479 143.554 267.314 142.911C268.391 142.081 269.057 140.828 269.145 139.47L272.879 81.5137C272.879 81.5137 275.277 57.5586 259.696 37.5764C240.002 12.3228 196.592 0 136.564 0C76.5349 0 33.496 12.6169 13.4325 37.5764C-2.72798 57.6777 0.144176 77.6854 0.280364 82.0405L0.280364 82.0405Z" transform="translate(68.65186 32.52339)" id="Shape" fill="#FFFFFF" stroke="none" />
        </g>
      </g>
      <g id="Group" />
      <g id="Group" />
      <g id="Group" />
      <g id="Group" />
      <g id="Group" />
      <g id="Group" />
      <g id="Group" />
      <g id="Group" />
      <g id="Group" />
      <g id="Group" />
      <g id="Group" />
      <g id="Group" />
      <g id="Group" />
      <g id="Group" />
      <g id="Group" />
    </g>
  </g>
</svg>