<?xml version="1.0" encoding="utf-8"?>
<svg width="654px" height="654px" viewBox="0 0 654 654" version="1.1" xmlns:xlink="http://www.w3.org/1999/xlink" xmlns="http://www.w3.org/2000/svg">
  <desc>Created with Lunacy</desc>
  <g id="eye-instance">
    <g id="Group-3" transform="translate(5 5)">
      <path d="M0 322C0 144.164 144.164 0 322 0C499.836 0 644 144.164 644 322C644 499.836 499.836 644 322 644C144.164 644 0 499.836 0 322Z" id="Oval" fill="#0071B3" stroke="none" />
      <path d="M0 310C0 138.792 138.792 0 310 0C481.208 0 620 138.792 620 310C620 481.208 481.208 620 310 620C138.792 620 0 481.208 0 310Z" transform="translate(12 12)" id="Oval-2" fill="none" stroke="#FFFFFF" stroke-width="10" />
    </g>
    <g id="safety-glasses" transform="translate(133 134.9495)">
      <g id="Group" transform="translate(45.32898 0)">
        <g id="Group">
          <path d="M0.296333 86.749L2.42033 119.718C2.56434 121.954 4.17833 123.822 6.37034 124.287C8.55934 124.75 10.7953 123.704 11.8373 121.72C30.4083 86.33 59.5703 65.256 96.1733 60.774C96.1733 60.774 101.769 60.017 103.656 61.841C105.23 63.362 106.34 67.832 106.34 67.832C108.558 77.082 113.111 83.057 120.259 86.097C124.4 87.859 129.4 88.752 135.122 88.752C160.225 88.752 196.083 70.389 206.136 65.021C215.094 60.237 222.386 61.925 219.962 74.822C219.452 77.537 215.101 103.912 231.965 126.142C241.897 139.234 257.601 147.955 278.642 152.061C280.158 152.258 281.771 151.793 282.654 151.113C283.793 150.235 284.498 148.91 284.591 147.475L288.539 86.192C288.539 86.192 291.075 60.862 274.599 39.733C253.776 13.03 207.875 0 144.401 0C80.9273 0 35.4173 13.341 14.2013 39.733C-2.88367 60.987 0.152332 82.143 0.296333 86.749L0.296333 86.749Z" transform="translate(14.74597 0)" id="Shape" fill="#FFFFFF" stroke="none" />
          <path d="M202.265 55.8454C193.605 44.3044 188.337 30.4614 186.609 14.6994C186.435 13.1095 185.509 11.6994 184.123 10.9054C182.734 10.1115 181.051 10.0285 179.593 10.6834C164.031 17.6665 141.113 25.9914 120.288 25.9914C111.965 25.9914 104.577 24.6434 98.3292 21.9855C89.2992 18.1444 82.4172 11.6664 77.8732 2.73445C76.8152 0.654449 74.4552 -0.417549 72.1972 0.151451C45.6102 6.84045 25.1362 24.8555 11.3462 53.6965C6.66223 63.4935 2.89023 74.3015 0.13723 85.8185C-0.218773 87.3065 0.126228 88.8765 1.07523 90.0785C2.02423 91.2805 3.47023 91.9815 5.00024 91.9815L235.571 91.9815C237.958 91.9815 240.012 90.2935 240.476 87.9515C240.939 85.6095 239.682 83.2665 237.475 82.3575C222.77 76.3064 210.924 67.3855 202.265 55.8454L202.265 55.8454Z" transform="translate(29.05499 81.366)" id="Shape" fill="#FFFFFF" stroke="none" />
          <path d="M313.933 12.7415C311.664 11.9695 308.184 11.4915 304.204 10.9905L296.404 10.0025L296.702 5.38147C296.867 2.82347 295.071 0.555466 292.543 0.129471L292.196 0.0734711C290.558 -0.209534 288.889 0.339478 287.739 1.53647L275.881 13.8815C275.138 14.6545 274.664 15.6465 274.527 16.7105L268.47 63.9735L183.065 63.9735L178.788 22.6525C178.524 20.1035 176.376 18.1675 173.814 18.1675L143.505 18.1675C140.943 18.1675 138.796 20.1045 138.531 22.6525L134.254 63.9735L48.8495 63.9735L42.7935 16.7105C42.6575 15.6475 42.1825 14.6555 41.4395 13.8815L29.5815 1.53648C28.4315 0.339478 26.7605 -0.21051 25.1245 0.0734863L24.7775 0.129486C22.2505 0.555481 20.4545 2.82349 20.6185 5.38149L20.9165 10.0025L13.1185 10.9895C9.13646 11.4915 5.65545 11.9685 3.38845 12.7405C1.33846 13.4385 -0.0285454 15.3765 0.000453949 17.5415C0.0234528 19.2295 0.362453 21.3105 1.00845 23.7245L17.2355 76.0565C17.7105 77.4735 18.7185 77.8435 19.8035 78.2555C23.8385 79.7875 26.9495 84.3595 28.5655 91.1255C28.5765 91.1725 28.5875 91.2185 28.6005 91.2645C34.1525 111.908 52.4645 165.22 70.7095 189.167C78.3045 199.136 95.1685 211.024 116.978 221.782C136.947 231.632 153.12 236.688 158.226 237.132C158.37 237.146 158.515 237.152 158.659 237.152C158.803 237.152 158.948 237.145 159.092 237.132C164.197 236.689 180.37 231.632 200.339 221.782C222.15 211.024 239.013 199.136 246.609 189.167C264.855 165.22 283.166 111.907 288.717 91.2645C288.73 91.2185 288.74 91.1735 288.752 91.1255C290.368 84.3595 293.481 79.7875 297.514 78.2555C298.599 77.8435 299.707 77.1925 300.082 76.0565L316.31 23.7245C316.956 21.3095 317.294 19.2295 317.318 17.5415C317.349 15.3765 315.983 13.4385 313.933 12.7415L313.933 12.7415Z" transform="translate(0 170.899)" id="Shape" fill="#FFFFFF" stroke="none" />
        </g>
      </g>
      <g id="Group" />
      <g id="Group" />
      <g id="Group" />
      <g id="Group" />
      <g id="Group" />
      <g id="Group" />
      <g id="Group" />
      <g id="Group" />
      <g id="Group" />
      <g id="Group" />
      <g id="Group" />
      <g id="Group" />
      <g id="Group" />
      <g id="Group" />
      <g id="Group" />
    </g>
  </g>
</svg>