<?xml version="1.0" encoding="utf-8"?>
<svg width="655px" height="654px" viewBox="0 0 655 654" version="1.1" xmlns:xlink="http://www.w3.org/1999/xlink" xmlns="http://www.w3.org/2000/svg">
  <desc>Created with Lunacy</desc>
  <g id="fall-instance">
    <g id="Group-6" transform="translate(5 5)">
      <path d="M0 322C0 144.164 144.164 0 322 0C499.836 0 644 144.164 644 322C644 499.836 499.836 644 322 644C144.164 644 0 499.836 0 322Z" id="Oval" fill="#0071B3" stroke="none" />
      <path d="M0 310C0 138.792 138.792 0 310 0C481.208 0 620 138.792 620 310C620 481.208 481.208 620 310 620C138.792 620 0 481.208 0 310Z" transform="translate(12 12)" id="Oval-2" fill="none" stroke="#FFFFFF" stroke-width="10" />
    </g>
    <g id="worker-with-harness" transform="translate(65.99994 89)">
      <g id="Group" transform="translate(98.95996 0)">
        <g id="Group">
          <path d="M101.712 64.441L108.692 113.379C111.272 112.462 119.186 109.713 129.933 106.535C109.351 75.888 101.123 44.283 97.8687 22.673C96.5697 14.053 95.9357 6.37801 95.6637 0C83.8167 21.049 55.5287 63.733 20.4027 65.03C8.71066 65.461 -0.416344 75.29 0.0146561 86.98C0.405655 97.562 8.49265 106.043 18.6937 107.239C19.7627 107.364 20.8567 107.411 21.9647 107.37C49.8577 106.339 77.2187 91.55 101.712 64.441L101.712 64.441Z" transform="translate(0 150.314)" id="Shape" fill="#FFFFFF" stroke="none" />
          <path d="M59.83 0.164947C33.158 -1.56505 6.455 10.81 0 14.0399C2.13899 23.4689 5.12199 33.6019 9.26801 44.0309C18.429 39.6769 41.181 30.2189 65.402 30.5279C62.712 20.341 60.919 10.0049 59.83 0.164947L59.83 0.164947Z" transform="translate(110.226 172.019)" id="Shape" fill="#FFFFFF" stroke="none" />
          <path d="M6.89444 81.0695C7.85344 81.2325 8.86044 81.2285 9.87244 81.0315L24.6144 78.2005C28.1594 97.6955 42.3084 113.963 61.5024 119.962C60.4704 121.346 58.9374 123.581 57.3974 125.916C57.0974 133.343 57.0894 149.771 61.0614 170.365C69.8784 166.077 95.2455 155.12 121.655 156.51C119.926 135.251 121.426 117.19 124.009 109.46C120.743 107.841 118.14 106.701 116.376 105.976C124.314 97.7795 129.731 87.0215 131.163 74.8125C131.949 68.0915 131.452 61.5195 129.884 55.3275C129.973 55.1775 130.058 55.0245 130.134 54.8635C131.483 51.9815 130.056 49.4045 128.677 46.9125C127.378 44.5645 125.6 41.3495 124.643 36.3695C119.861 11.4845 93.0455 -4.35351 64.8685 1.06149C36.6895 6.47749 17.6555 31.1265 22.4365 56.0105C22.8375 58.0985 23.5675 61.5245 23.5675 61.5245L6.69746 64.7675C2.20746 65.6465 -0.722534 69.9965 0.155457 74.4895C0.832443 77.9675 3.59544 80.5095 6.89444 81.0695L6.89444 81.0695Z" transform="translate(47.91296 8.882004)" id="Shape" fill="#FFFFFF" stroke="none" />
          <path d="M70.915 33.8347C64.199 23.7347 59.166 12.1047 55.472 0.0527191C31.866 -0.799286 8.688 8.89772 0 13.0087C4.54401 23.3867 10.27 33.9707 17.488 44.3677C35.24 39.4907 51.678 34.4627 70.915 33.8347L70.915 33.8347Z" transform="translate(122.062 211.072)" id="Shape" fill="#FFFFFF" stroke="none" />
          <path d="M99.4785 239.851C77.1545 183.906 43.3305 151.069 17.9165 133.01L17.9165 0L5.60651 0L5.60651 124.938C4.2525 124.123 2.9325 123.345 1.6745 122.629C0.231506 140.461 -6.8035 193.084 24.7905 242.973C24.9365 242.982 31.1805 242.993 31.3225 243.001L24.6395 196.155C39.1905 213.007 51.0775 232.884 60.1215 255.552C63.1065 263.032 69.8755 267.872 77.3505 268.747C80.7325 269.143 84.2625 268.726 87.6485 267.376C98.5215 263.042 103.815 250.719 99.4785 239.851L99.4785 239.851Z" transform="translate(180.929 0)" id="Shape" fill="#FFFFFF" stroke="none" />
          <path d="M85.0556 30.357C76.3566 8.32001 46.0386 1.056 41.0336 0C11.9166 21.309 8.96158 28.247 7.05959 32.742C1.51158 45.855 -3.90741 78.68 3.90259 115.365C6.41359 127.159 16.8276 135.24 28.4206 135.239C30.1506 135.239 31.9096 135.057 33.6696 134.683C47.2246 131.796 55.8736 118.47 52.9886 104.915C47.9846 81.409 50.8756 61.942 52.5906 54.759C58.0796 49.732 71.5846 39.717 85.0556 30.357L85.0556 30.357Z" transform="translate(67.354 284.786)" id="Shape" fill="#FFFFFF" stroke="none" />
          <path d="M47.427 4.69299C47.641 3.146 47.778 1.57999 47.848 0C40.372 0.688995 9.98099 4.797 0 26.39C6.07001 65.813 16.457 135.511 19.059 167.293C20.133 180.408 31.11 190.341 44.04 190.341C44.727 190.341 45.419 190.312 46.114 190.256C59.927 189.125 70.208 177.011 69.077 163.197C65.96 125.112 52.858 39.414 47.427 4.69299L47.427 4.69299Z" transform="translate(164.9811 287.813)" id="Shape" fill="#FFFFFF" stroke="none" />
          <path d="M102.858 22.009C102.773 20.773 102.645 19.53 102.466 18.283L99.899 0.326004L98.956 0.251999C96.838 0.0839996 94.559 0 92.18 0C55.701 0 1.37999 19.496 0.835999 19.693L0 19.996L0.229004 21.602C9.759 23.94 36.008 32.184 45.28 53.637C47.157 52.354 49.014 51.097 50.83 49.881C63.153 26.502 95.419 22.602 102.858 22.009L102.858 22.009Z" transform="translate(110.9071 254.31)" id="Shape" fill="#FFFFFF" stroke="none" />
        </g>
      </g>
      <g id="Group" />
      <g id="Group" />
      <g id="Group" />
      <g id="Group" />
      <g id="Group" />
      <g id="Group" />
      <g id="Group" />
      <g id="Group" />
      <g id="Group" />
      <g id="Group" />
      <g id="Group" />
      <g id="Group" />
      <g id="Group" />
      <g id="Group" />
      <g id="Group" />
    </g>
  </g>
</svg>