<?xml version="1.0" encoding="utf-8"?>
<svg width="654px" height="654px" viewBox="0 0 654 654" version="1.1" xmlns:xlink="http://www.w3.org/1999/xlink" xmlns="http://www.w3.org/2000/svg">
  <desc>Created with Lunacy</desc>
  <g id="boots-instance">
    <g id="Group-4" transform="translate(5 5)">
      <path d="M0 322C0 144.164 144.164 0 322 0C499.836 0 644 144.164 644 322C644 499.836 499.836 644 322 644C144.164 644 0 499.836 0 322Z" id="Oval" fill="#0071B3" stroke="none" />
      <path d="M0 310C0 138.792 138.792 0 310 0C481.208 0 620 138.792 620 310C620 481.208 481.208 620 310 620C138.792 620 0 481.208 0 310Z" transform="translate(12 12)" id="Oval-2" fill="none" stroke="#FFFFFF" stroke-width="10" />
    </g>
    <g id="woman-boots" transform="translate(139.9999 134.9999)">
      <g id="Group" transform="translate(23.3725 0.1055298)">
        <g id="Group">
          <path d="M307.768 261.353C243.804 243.477 139.121 177.023 134.696 174.205L132.574 172.851L132.574 4.58842C132.574 2.05469 130.52 0 127.985 0L13.4657 0C10.9311 0 8.87731 2.05469 8.87731 4.58842L8.87731 201.025L8.69103 201.669C8.51575 202.274 -8.53482 262.741 5.60486 316.195L6.50786 319.611C7.04011 321.622 8.8608 323.026 10.9439 323.026L82.2847 323.026C84.8193 323.026 86.8731 320.971 86.8731 318.437L86.8731 291.809L123.018 291.809L184.92 322.547C185.554 322.862 186.254 323.026 186.962 323.026L338.916 323.026C340.161 323.026 341.353 322.519 342.219 321.622C343.083 320.726 343.546 319.516 343.501 318.272L343.328 313.518C342.755 297.587 337.372 269.625 307.768 261.353L307.768 261.353Z" transform="translate(0 74.53336)" id="Shape" fill="#FFFFFF" stroke="none" />
          <path d="M258.984 348.055L257.719 333.374C256.285 316.745 248.168 304.074 234.245 296.735C179.377 267.808 97.0977 186.642 93.6206 183.201L92.1871 181.783L125.344 28.257C125.6 27.0677 125.374 25.8242 124.714 24.8019C124.054 23.7787 123.016 23.0601 121.827 22.8032L16.7214 0.105182C14.2427 -0.432581 11.8035 1.14492 11.2676 3.62175L0.103074 55.3176C-0.188743 56.674 0.146203 58.089 1.01709 59.1682C1.88798 60.2474 3.20026 60.8751 4.5878 60.8751L45.3816 60.8751L45.3816 235.314C45.3816 236.902 46.2038 238.379 47.5556 239.215L49.7278 240.559C74.6824 256.01 160.27 307.586 213.867 322.564C225.288 325.754 234.583 331.622 241.496 340.002L250.874 351.369C251.765 352.45 253.073 353.037 254.413 353.037C254.996 353.037 255.583 352.926 256.149 352.696C258.008 351.937 259.157 350.057 258.984 348.055L258.984 348.055Z" transform="translate(97.62601 0)" id="Shape" fill="#FFFFFF" stroke="none" />
        </g>
      </g>
      <g id="Group" />
      <g id="Group" />
      <g id="Group" />
      <g id="Group" />
      <g id="Group" />
      <g id="Group" />
      <g id="Group" />
      <g id="Group" />
      <g id="Group" />
      <g id="Group" />
      <g id="Group" />
      <g id="Group" />
      <g id="Group" />
      <g id="Group" />
      <g id="Group" />
    </g>
  </g>
</svg>