<?xml version="1.0" encoding="utf-8"?>
<svg width="664px" height="664px" viewBox="0 0 664 664" version="1.1" xmlns:xlink="http://www.w3.org/1999/xlink" xmlns="http://www.w3.org/2000/svg">
  <desc>Created with Lunacy</desc>
  <g id="hand-instance">
    <g id="hand-instance" transform="translate(5 5)">
      <g id="Group" transform="translate(5 5)">
        <path d="M0 322C0 144.164 144.164 0 322 0C499.836 0 644 144.164 644 322C644 499.836 499.836 644 322 644C144.164 644 0 499.836 0 322Z" id="Oval" fill="#0071B3" stroke="none" />
        <path d="M0 310C0 138.792 138.792 0 310 0C481.208 0 620 138.792 620 310C620 481.208 481.208 620 310 620C138.792 620 0 481.208 0 310Z" transform="translate(12 12)" id="Oval-2" fill="none" stroke="#FFFFFF" stroke-width="10" />
      </g>
    </g>
    <g id="protection-gloves" transform="translate(101.2083 90)">
      <g id="Group" transform="translate(36.99197 1.306992)">
        <g id="Group">
          <path d="M1.29886 49.2746L5.80187 51.7436C13.8829 56.1726 19.4589 63.8816 21.1009 72.8946L25.0879 94.7806C25.2909 95.8916 26.2139 96.7296 27.3399 96.8236C27.4099 96.8296 27.4799 96.8326 27.5489 96.8326C28.5939 96.8326 29.5389 96.1796 29.9009 95.1836L53.4969 29.8676C55.5219 24.2636 55.2449 18.2066 52.7129 12.8116C50.1819 7.41758 45.7009 3.33258 40.0979 1.30858C34.5969 -0.679421 28.3389 -0.390422 23.0409 2.09458C17.6469 4.62558 13.5629 9.10658 11.5409 14.7076L0.148895 46.2326C-0.26915 47.3916 0.21785 48.6826 1.29886 49.2746L1.29886 49.2746Z" transform="translate(199.8631 15.60001)" id="Shape" fill="#FFFFFF" stroke="none" />
          <path d="M0.288879 99.0423C0.615875 99.6653 1.19287 100.12 1.87488 100.295L8.25687 101.944C15.7809 103.886 22.2179 108.618 26.3819 115.264L32.9239 125.704C33.3839 126.437 34.1879 126.876 35.0409 126.876C35.1299 126.876 35.2179 126.871 35.3079 126.862C36.2589 126.759 37.0688 126.125 37.3949 125.225L71.8429 29.8693C73.8679 24.2653 73.5899 18.2083 71.0599 12.8133C68.5309 7.42025 64.0489 3.33425 58.4439 1.30825C52.9429 -0.679747 46.6789 -0.389747 41.3889 2.09425C35.9929 4.62625 31.9089 9.10625 29.8859 14.7083L0.149902 97.0223C-0.0911255 97.6883 -0.0391235 98.4203 0.288879 99.0423L0.288879 99.0423Z" transform="translate(243.092 0)" id="Shape" fill="#FFFFFF" stroke="none" />
          <path d="M269.776 95.247C269.776 82.947 259.769 72.94 247.469 72.94C235.168 72.94 225.161 82.947 225.161 95.247L225.161 181.649L217.161 181.649L217.161 57.894C217.161 45.594 207.155 35.588 194.854 35.588C182.555 35.588 172.548 45.594 172.548 57.894L172.548 181.648L164.548 181.648L164.548 22.307C164.548 10.007 154.541 0 142.24 0C129.94 0 119.934 10.007 119.934 22.307L119.934 181.649L111.934 181.649L111.934 57.894C111.934 45.594 101.927 35.588 89.6255 35.588C77.3255 35.588 67.3185 45.594 67.3185 57.894L67.3185 199.13L41.7105 169.56C37.1305 164.272 31.5115 160.852 25.8905 159.932C24.8525 159.762 23.8075 159.676 22.7825 159.676C18.0855 159.676 13.6985 161.413 9.74654 164.839C-1.34446 174.443 -2.95746 186.811 4.84454 202.706L67.4065 322.316L59.1385 419.18C59.0785 419.877 59.3155 420.568 59.7865 421.083C60.2615 421.599 60.9295 421.892 61.6295 421.892L275.877 421.892C276.578 421.892 277.248 421.597 277.722 421.08C278.197 420.561 278.431 419.87 278.368 419.171L269.774 322.731L269.774 95.247L269.776 95.247L269.776 95.247Z" transform="translate(0 41.739)" id="Shape" fill="#FFFFFF" stroke="none" />
          <path d="M101.632 54.334C96.131 52.348 89.8701 52.636 84.576 55.121C79.187 57.65 75.1041 62.127 73.0801 67.725L43.72 148.997L36.197 146.277L78.246 29.885C82.423 18.318 76.411 5.507 64.844 1.328C62.406 0.446999 59.863 0 57.282 0C47.924 0 39.489 5.911 36.292 14.711L0.14801 114.76C0.0490112 115.032 0 115.32 0 115.61L0 306.714C0 306.788 0.00299072 306.861 0.0100098 306.935L7.073 386.46C7.17801 387.659 8.12698 388.612 9.32599 388.728C9.40598 388.735 9.48599 388.739 9.564 388.739C10.668 388.739 11.657 388.009 11.965 386.927L37.763 296.799L115.038 82.891C119.214 71.327 113.202 58.515 101.632 54.334L101.632 54.334Z" transform="translate(279.435 50.02)" id="Shape" fill="#FFFFFF" stroke="none" />
        </g>
      </g>
      <g id="Group" />
      <g id="Group" />
      <g id="Group" />
      <g id="Group" />
      <g id="Group" />
      <g id="Group" />
      <g id="Group" />
      <g id="Group" />
      <g id="Group" />
      <g id="Group" />
      <g id="Group" />
      <g id="Group" />
      <g id="Group" />
      <g id="Group" />
      <g id="Group" />
    </g>
  </g>
</svg>