<?xml version="1.0" encoding="utf-8"?>
<svg width="654px" height="655px" viewBox="0 0 654 655" version="1.1" xmlns:xlink="http://www.w3.org/1999/xlink" xmlns="http://www.w3.org/2000/svg">
  <desc>Created with Lunacy</desc>
  <g id="head-instance">
    <g id="Group-5" transform="translate(5 5)">
      <path d="M0 322C0 144.164 144.164 0 322 0C499.836 0 644 144.164 644 322C644 499.836 499.836 644 322 644C144.164 644 0 499.836 0 322Z" id="Oval" fill="#0071B3" stroke="none" />
      <path d="M0 310C0 138.792 138.792 0 310 0C481.208 0 620 138.792 620 310C620 481.208 481.208 620 310 620C138.792 620 0 481.208 0 310Z" transform="translate(12 12)" id="Oval-2" fill="none" stroke="#FFFFFF" stroke-width="10" />
    </g>
    <g id="worker-silhouette" transform="translate(112.9998 118.0259)">
      <g id="Group" transform="translate(73.42603 0)">
        <g id="Group">
          <path d="M285.364 157.001L285.32 156.865C282.579 148.465 278.434 135.77 278.434 117.422C278.435 52.675 217.598 0 142.817 0C68.0374 0 7.19939 52.674 7.19939 117.421C7.19939 135.763 3.05939 148.457 0.326385 156.837L0.247383 157.078C-0.234619 158.553 -0.00461578 160.168 0.870384 161.45C1.74538 162.732 3.16538 163.535 4.71539 163.623L280.922 163.623C282.471 163.535 283.878 162.692 284.753 161.412C285.628 160.132 285.846 158.476 285.364 157.001L285.364 157.001Z" id="Shape" fill="#FFFFFF" stroke="none" />
          <path d="M278.697 45.641C276.631 45.147 273.708 44.781 271.578 44.512L263.86 43.535L266.321 5.32001C266.41 3.953 265.932 2.61 265.003 1.604C264.071 0.598007 262.771 0.0180054 261.399 0L21.1372 0C19.7672 0.0189972 18.4652 0.598999 17.5342 1.604C16.6032 2.61 16.1272 3.953 16.2152 5.32001L18.6772 43.535L10.9642 44.512C8.83018 44.782 5.90718 45.149 3.84018 45.641C1.37218 46.231 -0.263824 48.575 0.0351791 51.094C0.168182 52.221 0.427177 53.502 0.802177 54.906L14.9872 101.052C15.3532 102.15 16.3722 102.823 17.4042 103.269C21.1352 104.882 23.9902 109.113 25.4442 115.179C25.4552 115.224 25.4662 115.267 25.4782 115.312C30.4322 133.722 46.7552 181.251 62.9912 202.56C78.6372 223.097 130.309 244.54 140.979 245.162C141.076 245.168 141.172 245.17 141.269 245.17C141.366 245.17 141.463 245.168 141.56 245.162C152.229 244.543 203.902 223.098 219.548 202.56C235.784 181.249 252.107 133.722 257.06 115.314C257.073 115.269 257.083 115.224 257.094 115.179C258.548 109.114 261.404 104.884 265.135 103.269C266.166 102.823 267.214 102.166 267.551 101.052L281.736 54.906C282.111 53.505 282.37 52.223 282.504 51.094C282.802 48.576 281.166 46.231 278.697 45.641L278.697 45.641Z" transform="translate(1.33606 186.804)" id="Shape" fill="#FFFFFF" stroke="none" />
        </g>
      </g>
      <g id="Group" />
      <g id="Group" />
      <g id="Group" />
      <g id="Group" />
      <g id="Group" />
      <g id="Group" />
      <g id="Group" />
      <g id="Group" />
      <g id="Group" />
      <g id="Group" />
      <g id="Group" />
      <g id="Group" />
      <g id="Group" />
      <g id="Group" />
      <g id="Group" />
    </g>
  </g>
</svg>