<?xml version="1.0" encoding="utf-8"?>
<svg width="654px" height="654px" viewBox="0 0 654 654" version="1.1" xmlns:xlink="http://www.w3.org/1999/xlink" xmlns="http://www.w3.org/2000/svg">
  <desc>Created with Lunacy</desc>
  <g id="mouth-instance">
    <g id="Group-7" transform="translate(5 5)">
      <path d="M0 322C0 144.164 144.164 0 322 0C499.836 0 644 144.164 644 322C644 499.836 499.836 644 322 644C144.164 644 0 499.836 0 322Z" id="Oval" fill="#0071B3" stroke="none" />
      <path d="M0 310C0 138.792 138.792 0 310 0C481.208 0 620 138.792 620 310C620 481.208 481.208 620 310 620C138.792 620 0 481.208 0 310Z" transform="translate(12 12)" id="Oval-2" fill="none" stroke="#FFFFFF" stroke-width="10" />
    </g>
    <path d="M265.03 91.9155C241.893 85.9579 224.025 74.7593 211.924 58.6318C202.762 46.424 197.191 31.7824 195.362 15.1138C195.193 13.5634 194.291 12.1886 192.938 11.4144C191.585 10.6392 189.944 10.5602 188.522 11.1969C172.102 18.5655 147.913 27.3488 125.914 27.3498C117.098 27.3498 109.267 25.9204 102.64 23.1024C93.0508 19.0208 85.7398 12.1466 80.9113 2.66416C79.8767 0.6331 77.5727 -0.41314 75.3642 0.152398C25.9324 12.7463 7.01909 60.9173 0.1449 88.5116C-0.235374 90.0356 0.14295 91.6503 1.16091 92.8467L67.7499 171.198C68.6781 172.29 70.0374 172.916 71.4649 172.916C71.5302 172.916 71.5965 172.915 71.6628 172.912C73.1615 172.851 74.548 172.104 75.4236 170.886C93.8757 145.21 113.238 133.759 138.203 133.759C163.169 133.759 182.529 145.21 200.981 170.886C201.864 172.115 203.269 172.863 204.78 172.913C206.328 172.975 207.743 172.309 208.702 171.142L267.577 99.7394C268.639 98.4543 268.969 96.7148 268.452 95.1293C267.934 93.5419 266.644 92.3309 265.03 91.9155L265.03 91.9155Z" transform="translate(196.7271 188.324)" id="Shape" fill="#FFFFFF" stroke="none" />
    <path d="M296.11 114.538C301.559 115.905 306.756 118.111 311.614 121.128C337.189 137.011 345.078 170.742 329.196 196.321L299.196 244.627C289.162 260.783 271.803 270.429 252.761 270.429C242.608 270.429 232.665 267.586 224.002 262.206C214.412 256.248 206.935 247.477 202.558 237.159C191.384 241.298 180.021 243.395 168.71 243.398L168.689 243.398C157.378 243.396 146.017 241.298 134.842 237.159C130.463 247.478 122.987 256.25 113.396 262.206C104.735 267.586 94.7898 270.429 84.6375 270.429C65.5955 270.429 48.2365 260.783 38.2021 244.627L8.20332 196.321C-7.68143 170.745 0.20683 137.012 25.7827 121.129C30.6405 118.112 35.8356 115.904 41.2862 114.539C37.4065 103.604 34.0249 92.9873 31.8174 84.7793C31.8037 84.7334 31.793 84.6896 31.7833 84.6447C30.0506 77.3873 26.6886 72.4789 22.3164 70.8193C20.8918 70.2782 19.8017 69.1032 19.3717 67.6426L1.91417 8.56155C1.50854 7.18673 1.72695 5.70268 2.51383 4.50432C3.30168 3.305 4.57609 2.51422 5.9987 2.34067L24.9032 0.0346366C26.554 -0.162322 28.196 0.489019 29.2549 1.7722L93.2649 79.3999C94.5539 80.96 94.7421 83.1559 93.7388 84.9159C88.4754 94.1507 82.9624 104.977 76.447 118.878C76.9229 120.384 77.2827 121.415 77.2866 121.429C84.1929 140.679 91.5761 157.209 98.0681 167.935C98.0768 167.95 98.0866 167.965 98.0964 167.98C98.1032 167.994 98.111 168.004 98.1168 168.015C111.433 190.197 138.42 212.58 168.701 212.586C198.979 212.58 225.967 190.197 239.282 168.015C239.285 168.004 239.294 167.994 239.302 167.98C239.31 167.965 239.32 167.95 239.33 167.935C245.822 157.209 253.205 140.679 260.111 121.429C260.115 121.416 260.475 120.384 260.95 118.878C254.436 104.977 248.922 94.1507 243.659 84.9159C242.653 83.1578 242.843 80.9629 244.132 79.3999L308.14 1.77224C309.199 0.489064 310.842 -0.162277 312.492 0.0346813L331.399 2.33973C332.821 2.51328 334.094 3.30503 334.883 4.50339C335.668 5.70076 335.888 7.18578 335.482 8.56062L318.026 67.6416C317.594 69.1013 316.505 70.2762 315.08 70.8184C310.708 72.4779 307.346 77.3883 305.613 84.6438C305.603 84.6896 305.594 84.7334 305.579 84.7773C303.371 92.9854 299.99 103.601 296.11 114.538ZM97.2663 238.149C93.0862 240.745 88.3006 242.117 83.4253 242.117C74.2285 242.117 65.8517 237.465 61.0125 229.672L31.0137 181.367C27.3094 175.405 26.154 168.346 27.757 161.488C29.361 154.632 33.5274 148.816 39.4899 145.112C42.8246 143.042 46.5435 141.751 50.3872 141.313C51.2346 143.345 52.0858 145.343 52.9292 147.283C58.8254 162.032 64.7362 174.335 70.4862 183.84C79.8429 199.424 93.2139 213.559 108.38 223.958C106.475 229.866 102.609 234.831 97.2663 238.149ZM273.257 229.672L303.256 181.368C306.96 175.405 308.117 168.347 306.513 161.488C304.911 154.632 300.742 148.816 294.781 145.112C291.445 143.042 287.725 141.751 283.882 141.313C283.035 143.345 282.184 145.343 281.341 147.283C275.445 162.032 269.533 174.336 263.784 183.84C254.429 199.426 241.058 213.559 225.891 223.958C227.797 229.868 231.661 234.833 237.003 238.149C241.184 240.745 245.969 242.117 250.844 242.117C260.039 242.117 268.418 237.465 273.257 229.672Z" transform="translate(168 293.5708)" id="Shape" fill="#FFFFFF" fill-rule="evenodd" stroke="none" />
    <path d="M0.294627 86.1477L2.40369 118.888C2.54703 121.109 4.14905 122.964 6.3254 123.425C8.49979 123.887 10.72 122.847 11.7545 120.877C30.1969 85.7314 59.1572 64.8027 95.5066 60.3525C95.5066 60.3525 101.064 59.6007 102.939 61.4124C104.503 62.9237 105.603 67.3632 105.603 67.3632C107.804 76.5483 112.327 82.4825 119.425 85.5023C123.537 87.2515 128.504 88.1379 134.185 88.1379C159.115 88.1379 194.725 69.9022 204.709 64.5716C213.604 59.8211 220.847 61.4972 218.44 74.3037C217.932 77.0007 213.612 103.193 230.359 125.269C240.222 138.271 255.818 146.931 276.713 151.008C278.218 151.204 279.821 150.743 280.696 150.067C281.826 149.194 282.529 147.879 282.62 146.454L286.541 85.5949C286.541 85.5949 289.06 60.4412 272.699 39.4579C252.018 12.9401 206.435 0 143.401 0C80.3658 0 35.1707 13.2482 14.1035 39.4569C-2.86458 60.5641 0.15129 81.5737 0.294627 86.1477L0.294627 86.1477Z" transform="translate(191.7388 105)" id="Shape" fill="#FFFFFF" stroke="none" />
    <g id="Group" transform="translate(106 105)" />
    <g id="Group" transform="translate(106 105)" />
    <g id="Group" transform="translate(106 105)" />
    <g id="Group" transform="translate(106 105)" />
    <g id="Group" transform="translate(106 105)" />
    <g id="Group" transform="translate(106 105)" />
    <g id="Group" transform="translate(106 105)" />
    <g id="Group" transform="translate(106 105)" />
    <g id="Group" transform="translate(106 105)" />
    <g id="Group" transform="translate(106 105)" />
    <g id="Group" transform="translate(106 105)" />
    <g id="Group" transform="translate(106 105)" />
    <g id="Group" transform="translate(106 105)" />
    <g id="Group" transform="translate(106 105)" />
    <g id="Group" transform="translate(106 105)" />
  </g>
</svg>